<svg width="23" height="22" viewBox="0 0 23 22" fill="none" xmlns="http://www.w3.org/2000/svg">
    <g clip-path="url(#clip0_1990_13859)">
        <path d="M13.6495 2.84395L21.983 16.6815C23.1658 18.6436 22.3085 20.2334 20.0704 20.2334H2.95505C0.715127 20.2334 -0.141243 18.6426 1.04153 16.6815L9.37226 2.84395C10.5523 0.882746 12.4676 0.882746 13.6495 2.84395ZM11.5132 5.77429C10.8182 5.77429 10.2552 6.33725 10.2552 7.03133V12.3749C10.2552 12.7084 10.3877 13.0282 10.6235 13.2641C10.8594 13.4999 11.1792 13.6324 11.5127 13.6324C11.8462 13.6324 12.1661 13.4999 12.4019 13.2641C12.6377 13.0282 12.7702 12.7084 12.7702 12.3749V7.03133C12.7702 6.33725 12.2072 5.77429 11.5123 5.77429H11.5132ZM11.5132 14.7322C10.8182 14.7322 10.2552 15.2951 10.2552 15.9901V16.6182C10.2552 16.9517 10.3877 17.2715 10.6235 17.5074C10.8594 17.7432 11.1792 17.8757 11.5127 17.8757C11.8462 17.8757 12.1661 17.7432 12.4019 17.5074C12.6377 17.2715 12.7702 16.9517 12.7702 16.6182V15.9901C12.7702 15.2951 12.2072 14.7322 11.5123 14.7322H11.5132Z" fill="#E22F3D"/>
    </g>
    <defs>
        <clipPath id="clip0_1990_13859">
            <rect width="22" height="22" fill="white" transform="translate(0.509766)"/>
        </clipPath>
    </defs>
</svg>
