<svg width="64" height="64" viewBox="0 0 64 64" fill="none" xmlns="http://www.w3.org/2000/svg">
    <g clip-path="url(#clip0_4753_12044)">
        <path d="M28.8 61.4598C44.7061 61.4598 57.6 58.7931 57.6 55.5014C57.6 52.2107 44.7061 49.543 28.8 49.543C18.8192 49.543 10.0235 50.5936 4.85653 52.1894C1.7888 53.1366 0 54.2758 0 55.5014C0 58.7931 12.8939 61.4608 28.8 61.4608V61.4598Z" fill="#41474D"/>
        <path d="M49.6562 37.2301L40.4562 26.845C40.0146 26.1367 39.3693 25.709 38.6909 25.709H18.9106C18.2322 25.709 17.5869 26.1378 17.1453 26.845L7.94531 37.2301V45.5714H49.6562V37.2301Z" fill="#41474D"/>
        <path d="M17.8768 12.8008H39.7253C41.0494 12.8008 41.7114 13.4628 41.7114 14.7869V46.5661C41.7114 47.8902 41.0494 48.5523 39.7253 48.5523H17.8768C16.5527 48.5523 15.8906 47.8902 15.8906 46.5661V14.7869C15.8906 13.4628 16.5527 12.8008 17.8768 12.8008Z" fill="#C4C4C4"/>
        <path d="M19.8603 15.7793H37.7365C38.3986 15.7793 38.7296 16.1103 38.7296 16.7724V26.703C38.7296 27.3651 38.3986 27.6961 37.7365 27.6961H19.8603C19.1982 27.6961 18.8672 27.3651 18.8672 26.703V16.7724C18.8672 16.1103 19.1982 15.7793 19.8603 15.7793Z" fill="white"/>
        <path d="M19.8603 30.6758H37.7365C38.3986 30.6758 38.7296 31.0068 38.7296 31.6688C38.7296 32.3309 38.3986 32.6619 37.7365 32.6619H19.8603C19.1982 32.6619 18.8672 32.3309 18.8672 31.6688C18.8672 31.0068 19.1982 30.6758 19.8603 30.6758Z" fill="white"/>
        <path d="M19.8642 34.6484H37.7404C38.4025 34.6484 38.7335 34.9795 38.7335 35.6415C38.7335 36.3036 38.4025 36.6346 37.7404 36.6346H19.8642C19.2021 36.6346 18.8711 36.3036 18.8711 35.6415C18.8711 34.9795 19.2021 34.6484 19.8642 34.6484Z" fill="white"/>
        <path d="M18.0648 37.6289C19.1826 37.6289 20.084 38.8236 20.084 40.2721V40.2913C20.084 41.742 20.9949 42.911 22.1128 42.911H35.4888C36.6066 42.911 37.5176 41.7302 37.5176 40.2806C37.5176 38.8257 38.4189 37.6289 39.5368 37.6289H49.6562V54.0033C49.6562 55.919 48.4584 57.4913 46.981 57.4913H10.6205C9.14318 57.4913 7.94531 55.919 7.94531 54.0033V37.6289H18.0648Z" fill="#808A9D"/>
        <path opacity="0.662" d="M54.9339 15.9995C59.9408 15.9995 64.0005 12.8955 64.0005 9.06615C64.0005 5.23681 59.9408 2.13281 54.9339 2.13281C49.9269 2.13281 45.8672 5.23681 45.8672 9.06615C45.8672 10.6021 46.3813 12.1104 47.6272 13.1728C47.7061 13.24 47.4363 14.1008 46.8176 15.7552C46.8101 15.7751 46.8086 15.7967 46.8135 15.8174C46.8183 15.8381 46.8292 15.8569 46.8448 15.8713C46.8604 15.8857 46.8799 15.8952 46.9009 15.8985C46.9219 15.9017 46.9434 15.8986 46.9627 15.8896C48.7397 15.0661 49.7168 14.7131 49.8939 14.8304C51.2059 15.7008 53.0672 15.9995 54.9339 15.9995Z" fill="#808A9D"/>
        <path d="M53.8672 8H56.0005V10.1333H53.8672V8Z" fill="white"/>
        <path d="M57.6016 9.06692C57.6015 9.20702 57.6291 9.34576 57.6827 9.4752C57.7363 9.60464 57.8148 9.72226 57.9139 9.82134C58.0129 9.92042 58.1305 9.99901 58.26 10.0526C58.3894 10.1063 58.5281 10.1338 58.6682 10.1338C58.8083 10.1338 58.9471 10.1063 59.0765 10.0526C59.2059 9.99901 59.3235 9.92042 59.4226 9.82134C59.5216 9.72226 59.6002 9.60464 59.6538 9.4752C59.7074 9.34576 59.7349 9.20702 59.7349 9.06692C59.7349 8.92683 59.7074 8.78809 59.6538 8.65865C59.6002 8.52921 59.5216 8.41159 59.4226 8.31251C59.3235 8.21343 59.2059 8.13484 59.0765 8.08122C58.9471 8.0276 58.8083 8 58.6682 8C58.5281 8 58.3894 8.0276 58.26 8.08122C58.1305 8.13484 58.0129 8.21343 57.9139 8.31251C57.8148 8.41159 57.7363 8.52921 57.6827 8.65865C57.6291 8.78809 57.6015 8.92683 57.6016 9.06692Z" fill="white"/>
        <path d="M51.1995 8L52.2661 10.1333H50.1328L51.1995 8Z" fill="white"/>
    </g>
    <defs>
        <clipPath id="clip0_4753_12044">
            <rect width="64" height="64" fill="white"/>
        </clipPath>
    </defs>
</svg>
