<svg width="12" height="12" viewBox="0 0 12 12" fill="none" xmlns="http://www.w3.org/2000/svg">
<path d="M6 0C2.68629 0 0 2.68605 0 6C0 9.31344 2.68631 12 6 12C9.31369 12 12 9.31344 12 6C12 2.68605 9.31371 0 6 0ZM6 9.21258C5.61354 9.21258 5.30043 8.89971 5.30043 8.51439C5.30043 8.129 5.61354 7.81668 6 7.81668C6.38646 7.81668 6.69983 8.129 6.69983 8.51439C6.69983 8.89971 6.38646 9.21258 6 9.21258ZM6.69983 6.18809C6.69983 6.57344 6.38644 6.88601 6 6.88601C5.61356 6.88601 5.30043 6.57342 5.30043 6.18809V2.93077C5.30043 2.54542 5.61354 2.23308 6 2.23308C6.38646 2.23308 6.69983 2.54542 6.69983 2.93077V6.18809Z" fill="#F26A1D"/>
</svg>
