<svg width="16" height="16" viewBox="0 0 16 16" fill="none" xmlns="http://www.w3.org/2000/svg">
<g clip-path="url(#clip0_1935_6851)">
<path d="M8 0C3.58176 0 0 3.58138 0 8C0 12.4186 3.58176 16 8 16C12.4182 16 16 12.4179 16 8C16 3.58214 12.4182 0 8 0ZM8 12.2835C7.81592 12.2831 7.63609 12.2282 7.48322 12.1257C7.33035 12.0231 7.2113 11.8776 7.14112 11.7074C7.07093 11.5372 7.05277 11.3501 7.08891 11.1696C7.12505 10.9891 7.21388 10.8234 7.34417 10.6933C7.47447 10.5633 7.64038 10.4748 7.82095 10.439C8.00151 10.4033 8.18863 10.4218 8.35866 10.4923C8.52869 10.5629 8.674 10.6822 8.77623 10.8353C8.87846 10.9884 8.93302 11.1683 8.93302 11.3524C8.93302 11.4748 8.90887 11.5961 8.86196 11.7092C8.81505 11.8223 8.74629 11.925 8.65963 12.0115C8.57296 12.098 8.47009 12.1665 8.35691 12.2132C8.24372 12.2599 8.12244 12.2838 8 12.2835ZM8.93302 8.25083C8.92952 8.49595 8.82969 8.72985 8.65511 8.90195C8.48054 9.07405 8.24524 9.17053 8.0001 9.17053C7.75495 9.17053 7.51965 9.07405 7.34508 8.90195C7.1705 8.72985 7.07067 8.49595 7.06717 8.25083V3.90765C7.07067 3.66253 7.1705 3.42863 7.34508 3.25653C7.51965 3.08443 7.75495 2.98795 8.0001 2.98795C8.24524 2.98795 8.48054 3.08443 8.65511 3.25653C8.82969 3.42863 8.92952 3.66253 8.93302 3.90765V8.25083Z" fill="#65B3AE"/>
</g>
<defs>
<clipPath id="clip0_1935_6851">
<rect width="16" height="16" fill="white"/>
</clipPath>
</defs>
</svg>
