<svg width="40" height="40" viewBox="0 0 40 40" fill="none" xmlns="http://www.w3.org/2000/svg">
<path d="M3.78906 20C3.78906 24.2994 5.497 28.4227 8.53714 31.4629C11.5773 34.503 15.7006 36.2109 20 36.2109C24.2994 36.2109 28.4227 34.503 31.4629 31.4629C34.503 28.4227 36.2109 24.2994 36.2109 20C36.2109 15.7006 34.503 11.5773 31.4629 8.53714C28.4227 5.497 24.2994 3.78906 20 3.78906C15.7006 3.78906 11.5773 5.497 8.53714 8.53714C5.497 11.5773 3.78906 15.7006 3.78906 20Z" fill="#CCE9E7"/>
<path d="M9.46289 19.998C9.46289 22.7927 10.573 25.4728 12.5491 27.4489C14.5252 29.425 17.2054 30.5352 20 30.5352C22.7946 30.5352 25.4748 29.425 27.4509 27.4489C29.427 25.4728 30.5371 22.7927 30.5371 19.998C30.5371 17.2034 29.427 14.5233 27.4509 12.5472C25.4748 10.5711 22.7946 9.46094 20 9.46094C17.2054 9.46094 14.5252 10.5711 12.5491 12.5472C10.573 14.5233 9.46289 17.2034 9.46289 19.998Z" fill="#4D9D98"/>
<path d="M35.6035 15.5953L20 20.002L24.4066 4.39844C26.9906 5.12578 29.4297 6.50586 31.4629 8.53906C33.4961 10.5723 34.8762 13.0113 35.6035 15.5953Z" fill="#1A2F2D"/>
<path d="M35.5566 15.4289C35.541 15.3762 35.5254 15.3238 35.5094 15.2711C35.5074 15.2652 35.5059 15.259 35.5039 15.2527C35.4879 15.2012 35.4719 15.1492 35.4555 15.0977C35.4477 15.0727 35.4398 15.0477 35.4316 15.0227L35.4211 14.9898C35.4164 14.9754 35.4117 14.9609 35.407 14.9469C35.4039 14.9371 35.4008 14.9277 35.3977 14.918C35.3812 14.868 35.3645 14.818 35.3473 14.768C35.2913 14.6035 35.2327 14.4399 35.1715 14.2773C35.1566 14.2379 35.1414 14.1984 35.1262 14.159C35.0961 14.0801 35.0648 14.0016 35.0332 13.923C35.0176 13.884 35.0016 13.8449 34.9852 13.8059C34.9367 13.6883 34.8871 13.5715 34.8355 13.4555C34.7906 13.3535 34.7445 13.2523 34.6977 13.1516C34.6707 13.0937 34.6434 13.0363 34.6156 12.9789C34.6008 12.9477 34.5855 12.9164 34.5703 12.8852C34.5324 12.8082 34.4941 12.7312 34.4555 12.6551C33.9193 11.6032 33.2702 10.6128 32.5195 9.70156C32.5066 9.68555 32.4937 9.66992 32.4805 9.6543C32.457 9.62617 32.4332 9.59805 32.4098 9.56992C32.3184 9.46133 32.2254 9.35352 32.1305 9.24687C32.0875 9.19844 32.0441 9.15 32.0004 9.10195C31.9605 9.0582 31.9207 9.01484 31.8801 8.97148C31.7449 8.82539 31.6059 8.68125 31.4637 8.53906C31.3215 8.39687 31.1773 8.25781 31.0312 8.12266C30.9879 8.08203 30.9445 8.04219 30.9008 8.00234C30.8527 7.95859 30.8043 7.91523 30.7559 7.87227C30.6492 7.77734 30.5414 7.68437 30.4328 7.59297C30.4047 7.56953 30.3766 7.5457 30.3484 7.52227C30.3328 7.50898 30.3172 7.49609 30.3012 7.4832C29.3899 6.73255 28.3995 6.08341 27.3477 5.54727C27.2715 5.50859 27.1945 5.47031 27.1176 5.43242C27.0863 5.41719 27.0551 5.40195 27.0238 5.38711C26.9664 5.35937 26.909 5.33203 26.8512 5.30508C26.7504 5.2582 26.6492 5.21211 26.5473 5.16719C26.4313 5.11562 26.3145 5.06602 26.1969 5.01758C26.1578 5.00117 26.1187 4.98516 26.0797 4.96953C26.0012 4.93789 25.9227 4.90664 25.8437 4.87656C25.8043 4.86133 25.7648 4.84609 25.7254 4.83125C25.4899 4.7425 25.2523 4.65941 25.0129 4.58203C25.0101 4.58077 25.0073 4.57985 25.0043 4.5793C24.9961 4.57656 24.9883 4.57383 24.9801 4.57109C24.9551 4.56289 24.9301 4.55508 24.9051 4.54727C24.8535 4.53086 24.8016 4.51484 24.75 4.49883C24.7437 4.49687 24.7375 4.49531 24.7316 4.49336C24.6789 4.47734 24.6266 4.46172 24.5738 4.44609C24.5184 4.43008 24.4629 4.41406 24.4074 4.39844L22.8652 9.85898C26.382 10.85 29.1527 13.6207 30.1437 17.1375L35.6043 15.5953C35.5887 15.5398 35.5727 15.4844 35.5566 15.4289Z" fill="#65B3AE"/>
</svg>
