<svg width="40" height="40" viewBox="0 0 40 40" fill="none" xmlns="http://www.w3.org/2000/svg">
<path d="M2.49609 29.6641C2.49609 30.5833 2.94874 31.4936 3.8282 32.3428C4.70766 33.1921 5.9967 33.9638 7.62173 34.6138C9.24675 35.2638 11.1759 35.7794 13.2991 36.1312C15.4223 36.483 17.698 36.6641 19.9961 36.6641C22.2942 36.6641 24.5699 36.483 26.6931 36.1312C28.8162 35.7794 30.7454 35.2638 32.3705 34.6138C33.9955 33.9638 35.2845 33.1921 36.164 32.3428C37.0434 31.4936 37.4961 30.5833 37.4961 29.6641C37.4961 28.7448 37.0434 27.8346 36.164 26.9853C35.2845 26.136 33.9955 25.3643 32.3705 24.7143C30.7454 24.0643 28.8162 23.5487 26.6931 23.1969C24.5699 22.8451 22.2942 22.6641 19.9961 22.6641C17.698 22.6641 15.4223 22.8451 13.2991 23.1969C11.1759 23.5487 9.24675 24.0643 7.62173 24.7143C5.9967 25.3643 4.70766 26.136 3.8282 26.9853C2.94874 27.8346 2.49609 28.7448 2.49609 29.6641Z" fill="#CCE9E7"/>
<path d="M19.9977 27.0391L10.7383 31.9023L12.5102 21.5945L5.02344 14.291L15.3746 12.7914L20.007 3.41406L24.632 12.7949L34.9816 14.3027L27.4895 21.6004L29.2535 31.9098L19.9977 27.0391Z" fill="#65B3AE"/>
<path d="M29.2535 31.9098L19.9977 27.0391L10.7383 31.9023L12.2012 23.3926C14.5492 22.9254 17.1973 22.6629 19.9992 22.6641C22.8016 22.6652 25.4496 22.9297 27.7973 23.3988L29.2535 31.9098Z" fill="#1A2F2D"/>
</svg>
