<svg width="17" height="16" viewBox="0 0 17 16" fill="none" xmlns="http://www.w3.org/2000/svg">
<path d="M3.79284 5.61024L1.36672 4.375C1.17695 4.74786 1.01533 5.13875 0.886719 5.53692L3.4773 6.37459C3.56196 6.11272 3.66808 5.85571 3.79304 5.61044L3.79284 5.61024Z" fill="#464646"/>
<path d="M5.85313 3.43409L7.19693 5.74943C7.39318 5.6356 7.60321 5.54811 7.82174 5.48938L7.12625 2.90406C7.30326 2.85647 7.48311 2.81718 7.66397 2.78862L7.23663 0.0996094C6.82326 0.16523 6.41253 0.264267 6.01556 0.393685L6.84655 2.94052C6.58225 3.0268 6.32483 3.13394 6.07693 3.26072L4.85546 0.87652C4.48402 1.0669 4.12473 1.28806 3.78711 1.53454L5.39217 3.73363C5.54002 3.62588 5.69455 3.52604 5.85293 3.43388L5.85313 3.43409Z" fill="#464646"/>
<path d="M13.0645 5.35219L10.75 6.6972C10.864 6.89325 10.9515 7.10348 11.0105 7.32161L13.5956 6.6249C13.6432 6.80191 13.6825 6.98156 13.7112 7.16222L16.3998 6.73406C16.334 6.3209 16.2348 5.90996 16.1049 5.5128L13.5585 6.34541C13.472 6.0811 13.3649 5.82389 13.2379 5.57599L15.6213 4.3529C15.4309 3.98186 15.2093 3.62257 14.9629 3.28516L12.7644 4.89123C12.8723 5.03908 12.9722 5.19341 13.0643 5.35199L13.0645 5.35219Z" fill="#464646"/>
<path d="M12.1212 0.864157C11.748 0.674588 11.3571 0.513171 10.9593 0.384766L10.123 2.97575C10.3847 3.06021 10.6419 3.16633 10.8876 3.29109L12.1212 0.863955V0.864157Z" fill="#464646"/>
<path d="M11.1541 3.38586L9.79492 5.74474C9.99178 5.85816 10.1733 5.9971 10.3347 6.15791L14.1467 2.3329C13.851 2.03821 13.5298 1.76459 13.192 1.51953L11.6197 3.68783C11.4699 3.57928 11.3147 3.47821 11.1543 3.38566L11.1541 3.38586Z" fill="#464646"/>
<path d="M3.8866 5.34242L6.24487 6.70302C6.35829 6.50636 6.49763 6.32469 6.65864 6.16307L2.83526 2.34961C2.54037 2.64531 2.26655 2.96632 2.02148 3.30394L4.18898 4.8772C4.08042 5.02687 3.97915 5.18201 3.8866 5.34242Z" fill="#464646"/>
<path d="M9.32573 2.74207L9.73708 0.0951898C9.3306 0.032 8.9146 0 8.50042 0H8.49414V5.4003H8.50042C8.72806 5.4003 8.95328 5.42946 9.16999 5.48698L9.86832 2.85549C9.68968 2.8081 9.50862 2.77063 9.32573 2.74207Z" fill="#464646"/>
<path d="M5.98718 7.32906L3.3561 6.62891C3.3085 6.80754 3.27083 6.9886 3.24228 7.17149L0.595797 6.75893C0.532203 7.16683 0.5 7.58445 0.5 7.99984H5.9003C5.9003 7.77179 5.92967 7.54597 5.98739 7.32906H5.98718Z" fill="#464646"/>
<path d="M13.2072 10.3894L15.6334 11.6246C15.8231 11.2517 15.9848 10.8608 16.1134 10.4627L13.5228 9.625C13.4381 9.88687 13.332 10.1439 13.207 10.3892L13.2072 10.3894Z" fill="#464646"/>
<path d="M11.1463 12.5653L9.80254 10.25C9.60629 10.3638 9.39627 10.4513 9.17773 10.51L9.87323 13.0954C9.69601 13.143 9.51637 13.1823 9.33551 13.2108L9.76264 15.8996C10.176 15.834 10.5867 15.735 10.9837 15.6055L10.1527 13.0587C10.4172 12.9724 10.6744 12.8653 10.9223 12.7385L12.1438 15.1227C12.5152 14.9323 12.8745 14.7112 13.2122 14.4647L11.6071 12.2656C11.4593 12.3733 11.3047 12.4732 11.1463 12.5653Z" fill="#464646"/>
<path d="M3.9349 10.6491L6.24963 9.30409C6.1356 9.10804 6.04811 8.89781 5.98917 8.67969L3.40406 9.3764C3.35647 9.19938 3.31718 9.01974 3.28842 8.83908L0.599609 9.26723C0.665432 9.6804 0.764673 10.0913 0.894495 10.4885L3.44092 9.65589C3.5274 9.92019 3.63454 10.1774 3.76153 10.4253L1.37814 11.6484C1.56852 12.0194 1.79009 12.3787 2.03657 12.7161L4.23505 11.1101C4.1271 10.9622 4.02725 10.8079 3.9351 10.6493L3.9349 10.6491Z" fill="#464646"/>
<path d="M4.87891 15.1359C5.25217 15.3255 5.64306 15.4869 6.04083 15.6153L6.87708 13.0243C6.61541 12.9399 6.3582 12.8337 6.11253 12.709L4.87891 15.1361V15.1359Z" fill="#464646"/>
<path d="M5.84612 12.6138L7.20531 10.255C7.00845 10.1415 6.82698 10.0026 6.66556 9.8418L2.85352 13.6668C3.14921 13.9615 3.47043 14.2351 3.80825 14.4802L5.3805 12.3119C5.53037 12.4204 5.68551 12.5215 5.84592 12.614L5.84612 12.6138Z" fill="#464646"/>
<path d="M13.1119 10.6575L10.7536 9.29688C10.6402 9.49353 10.5009 9.6752 10.3398 9.83682L14.163 13.6505C14.4579 13.3548 14.7317 13.0338 14.9768 12.6962L12.8093 11.1229C12.9179 10.9732 13.0191 10.8181 13.1117 10.6577L13.1119 10.6575Z" fill="#464646"/>
<path d="M7.83114 10.5137L7.13281 13.1452C7.31145 13.1926 7.49251 13.23 7.67539 13.2586L7.26426 15.9055C7.67074 15.9687 8.08674 16.0007 8.50091 16.0007H8.50719V10.6004H8.50091C8.27327 10.6004 8.04805 10.5712 7.83134 10.5137H7.83114Z" fill="#464646"/>
<path d="M11.0988 8C11.0988 8.22805 11.0694 8.45367 11.0117 8.67078L13.6428 9.37094C13.6904 9.1923 13.7281 9.01124 13.7566 8.82835L16.4033 9.24111C16.4669 8.83321 16.4991 8.41559 16.4991 8.0002H11.0988V8Z" fill="#464646"/>
</svg>
