<svg width="22" height="22" viewBox="0 0 22 22" fill="none" xmlns="http://www.w3.org/2000/svg">
<path d="M12.4254 11.9043C8.76426 15.0713 3.23437 14.6895 0.0449219 11.0553C0.0269531 11.0373 0.0134766 11.0193 0 11.0014C0.332422 16.949 5.42207 21.5041 11.3742 21.1762C17.3219 20.8438 21.877 15.7541 21.549 9.80195C21.293 5.175 18.108 1.23086 13.6383 0C16.4594 3.65664 15.9293 8.88555 12.4254 11.9043Z" fill="#A6B0C3"/>
<path d="M7.1102 6.87365L7.82052 8.17936L9.25947 8.45916L8.25587 9.55037L8.43918 11.0333L7.1102 10.3991L5.78123 11.0333L5.96454 9.55037L4.96094 8.45916L6.39989 8.17936L7.1102 6.87365ZM7.08271 0.746094L7.56389 1.68341L8.54458 1.88393L7.86176 2.66737L7.98549 3.73059L7.08271 3.27359L6.17992 3.73059L6.30366 2.66737L5.62084 1.88393L6.60153 1.68341L7.08271 0.746094Z" fill="#A6B0C3"/>
</svg>
