<svg width="33" height="33" viewBox="0 0 33 33" fill="none" xmlns="http://www.w3.org/2000/svg">
<path d="M16.1562 32.5C7.32025 32.5 0.15625 25.336 0.15625 16.5C0.15625 7.664 7.32025 0.5 16.1562 0.5C24.9923 0.5 32.1562 7.664 32.1562 16.5C32.1562 25.336 24.9923 32.5 16.1562 32.5ZM22.4296 17.5467L22.4842 17.4947L23.4269 16.552L13.0989 6.22133C12.8483 5.97307 12.5097 5.83381 12.1569 5.83381C11.8041 5.83381 11.4656 5.97307 11.2149 6.22133C11.0907 6.34487 10.9921 6.49175 10.9248 6.65353C10.8575 6.81531 10.8229 6.98879 10.8229 7.164C10.8229 7.33921 10.8575 7.51269 10.9248 7.67447C10.9921 7.83625 11.0907 7.98313 11.2149 8.10667L19.6549 16.5493L11.2149 24.9853C11.0907 25.1088 10.9921 25.2555 10.9249 25.4172C10.8576 25.5789 10.823 25.7522 10.823 25.9273C10.823 26.1024 10.8576 26.2758 10.9249 26.4375C10.9921 26.5991 11.0907 26.7459 11.2149 26.8693C11.7349 27.3893 12.5856 27.384 13.0989 26.8707L22.4296 17.5467Z" fill="white"/>
</svg>
