<svg width="40" height="40" viewBox="0 0 40 40" fill="none" xmlns="http://www.w3.org/2000/svg">
<g clip-path="url(#clip0_1935_12334)">
<path d="M9.33789 9.82812H30.6504V30.5069H9.33789V9.82812Z" fill="white"/>
<path d="M20.0117 0.1875C8.97192 0.1875 0 9.02601 0 19.899C0 30.7721 8.97192 39.6106 20.0117 39.6106C31.0515 39.6106 40.0235 30.7721 40.0235 19.899C40.0235 9.02601 31.0515 0.1875 20.0117 0.1875Z" fill="white"/>
<path d="M18.5108 26.3028L30.2844 9.82648L39.9901 18.9318C39.4898 8.49237 30.718 0.1875 20.0117 0.1875C8.97192 0.1875 0 9.02601 0 19.899C0 30.7721 8.97192 39.6106 20.0117 39.6106C22.4131 39.6106 24.7145 39.177 26.8491 38.4099L18.5108 30.4719V26.3028Z" fill="#33CC66"/>
<path d="M40.0243 19.9007C40.0243 19.5672 40.0243 19.2336 39.991 18.9335L30.2853 9.82812L18.5117 26.3044V30.4736L26.8499 38.4115C34.5211 35.6766 40.0243 28.4057 40.0243 19.9007Z" fill="#199A44"/>
<path d="M18.5433 30.5051C15.4748 26.7029 11.8727 23.8345 9.33789 22.934L15.3081 19.3319L18.2098 24.9018C18.2098 24.9018 22.9125 13.5952 30.3168 9.79297C30.1501 12.4946 29.4163 14.8293 30.6837 17.6976C27.4151 18.4647 20.7112 26.5361 18.5433 30.5051Z" fill="white"/>
</g>
<defs>
<clipPath id="clip0_1935_12334">
<rect width="40" height="40" fill="white"/>
</clipPath>
</defs>
</svg>
