<svg width="22" height="22" viewBox="0 0 22 22" fill="none" xmlns="http://www.w3.org/2000/svg">
<path d="M10.4775 19.2958C11.5133 19.36 12.5538 19.2225 13.5438 18.9017L12.375 22L10.4775 19.2958ZM6.40292 17.9254C7.26458 18.5029 8.23167 18.9062 9.24458 19.1262L6.68708 21.2163L6.40292 17.9254ZM14.6804 18.4342C15.6154 17.9667 16.4542 17.325 17.1508 16.5458L17.6871 19.8367L14.6804 18.4342ZM8.25458 17.5038C4.68875 15.9958 3.02042 11.88 4.52833 8.31417C6.03625 4.74833 10.1521 3.08 13.7179 4.58792C17.2838 6.09583 18.9521 10.2117 17.4442 13.7775C16.3442 16.3717 13.8004 18.0583 10.9817 18.0583C10.0421 18.0583 9.11625 17.8704 8.25458 17.5038ZM3.57958 14.7217C4.02875 15.6292 4.64292 16.445 5.38542 17.1279L2.15875 17.6871L3.57958 14.7217ZM18.6038 14.2542C18.8146 13.7546 18.975 13.2367 19.085 12.705L21.2117 15.3083L17.8796 15.5971C18.1637 15.1754 18.4021 14.7262 18.6038 14.2542ZM0 12.3704L2.73167 10.5004C2.6675 11.5179 2.78667 12.5354 3.09375 13.5071L0 12.3704ZM18.8283 8.42875L22 9.62958L19.2408 11.5592C19.305 10.5004 19.1675 9.4325 18.8283 8.42875ZM0.788334 6.68708L4.11583 6.43042C3.54292 7.28292 3.135 8.23167 2.915 9.23542L0.788334 6.68708ZM16.4817 4.85833L19.8413 4.31292L18.4067 7.38833C17.93 6.43042 17.2792 5.56875 16.4817 4.85833ZM4.31292 2.15875L7.34708 3.61167C6.41667 4.06542 5.5825 4.68875 4.88583 5.45417L4.31292 2.15875ZM14.1992 3.41917C13.7179 3.2175 13.2229 3.06167 12.7142 2.95167L15.3083 0.788334L15.5696 4.15708C15.1388 3.86833 14.6804 3.62083 14.1992 3.41917ZM9.625 0L11.5317 2.78667C10.4958 2.71792 9.45083 2.84625 8.46083 3.1625L9.625 0Z" fill="#A6B0C3"/>
</svg>
