<svg width="24" height="24" viewBox="0 0 24 24" fill="none" xmlns="http://www.w3.org/2000/svg">
<path d="M12 0C9.62663 0 7.30655 0.703787 5.33316 2.02236C3.35977 3.34094 1.8217 5.21508 0.913451 7.4078C0.00519931 9.60051 -0.232441 12.0133 0.230582 14.3411C0.693605 16.6689 1.83649 18.807 3.51472 20.4853C5.19295 22.1635 7.33115 23.3064 9.65892 23.7694C11.9867 24.2324 14.3995 23.9948 16.5922 23.0865C18.7849 22.1783 20.6591 20.6402 21.9776 18.6668C23.2962 16.6935 24 14.3734 24 12C24 8.8174 22.7357 5.76515 20.4853 3.51472C18.2348 1.26428 15.1826 0 12 0ZM11.624 12.8547L8.416 17.6427C8.39539 17.6734 8.3674 17.6985 8.33459 17.7156C8.30178 17.7328 8.26519 17.7414 8.22819 17.7407C8.19118 17.7401 8.15493 17.7301 8.12275 17.7118C8.09057 17.6935 8.0635 17.6675 8.044 17.636L5.08134 12.836C5.06072 12.8025 5.04941 12.7641 5.04856 12.7248C5.04771 12.6855 5.05735 12.6466 5.0765 12.6122C5.09565 12.5779 5.12361 12.5493 5.15751 12.5293C5.1914 12.5093 5.23 12.4988 5.26934 12.4987H7.18667V8.70667C7.18667 7.63333 8.216 6.64267 9.88267 6.10933L9.67867 6.68267C9.56036 7.01479 9.49993 7.36476 9.5 7.71733V12.4973L11.444 12.512C11.4839 12.5123 11.523 12.5234 11.5572 12.544C11.5913 12.5647 11.6192 12.5943 11.6379 12.6295C11.6566 12.6648 11.6655 12.7044 11.6635 12.7443C11.6615 12.7842 11.6488 12.8228 11.6267 12.856L11.624 12.8547ZM18.392 11.344H16.48V15.1427C16.48 16.216 15.4507 17.2067 13.784 17.74L13.988 17.1667C14.1063 16.8345 14.1668 16.4846 14.1667 16.132V11.3413L12.22 11.3333C12.1801 11.3331 12.141 11.322 12.1068 11.3013C12.0727 11.2806 12.0448 11.2511 12.0261 11.2158C12.0074 11.1806 11.9985 11.1409 12.0005 11.101C12.0025 11.0611 12.0152 11.0226 12.0373 10.9893L15.2453 6.20133C15.2659 6.17059 15.2939 6.1455 15.3267 6.12837C15.3596 6.11124 15.3961 6.10261 15.4332 6.10327C15.4702 6.10393 15.5064 6.11387 15.5386 6.13216C15.5708 6.15046 15.5978 6.17653 15.6173 6.208L18.58 11.008C18.6006 11.0415 18.6119 11.0799 18.6128 11.1192C18.6136 11.1585 18.604 11.1974 18.5848 11.2317C18.5657 11.2661 18.5377 11.2947 18.5038 11.3147C18.4699 11.3347 18.4313 11.3452 18.392 11.3453V11.344Z" fill="#65B3AE"/>
</svg>
