<svg width="64" height="64" viewBox="0 0 64 64" fill="none" xmlns="http://www.w3.org/2000/svg">
<path d="M6.48633 6.36133H31.8751C31.9438 6.36133 32.0001 6.41758 32.0001 6.48633V37.0026C32.0001 37.0713 31.9438 37.1276 31.8751 37.1276H6.48633C6.41758 37.1276 6.36133 37.0713 6.36133 37.0026V6.48633C6.36133 6.41758 6.41758 6.36133 6.48633 6.36133Z" fill="#808A9D" fill-opacity="0.3"/>
<path d="M11.4898 16.6172H52.5117C55.3436 16.6172 57.6392 18.9128 57.6392 21.7447V52.5109C57.6392 55.3428 55.3436 57.6384 52.5117 57.6384H11.4898C8.65793 57.6384 6.3623 55.3428 6.3623 52.5109V21.7447C6.36168 18.9128 8.6573 16.6172 11.4898 16.6172ZM47.3836 42.2559C50.2154 42.2559 52.5111 39.9603 52.5111 37.1284C52.5111 34.2966 50.2154 32.0009 47.3836 32.0009C44.5517 32.0009 42.2561 34.2966 42.2561 37.1284C42.2554 39.9597 44.5511 42.2559 47.3836 42.2559Z" fill="#808A9D"/>
</svg>
