<svg width="23" height="22" viewBox="0 0 23 22" fill="none" xmlns="http://www.w3.org/2000/svg">
<path opacity="0.3" d="M2.24609 2.18652H10.9735C10.9971 2.18652 11.0164 2.20586 11.0164 2.22949V12.7195C11.0164 12.7431 10.9971 12.7624 10.9735 12.7624H2.24609C2.22246 12.7624 2.20312 12.7431 2.20312 12.7195V2.22949C2.20312 2.20586 2.22246 2.18652 2.24609 2.18652Z" fill="#15A0A3"/>
<path d="M3.9657 5.71191H18.067C19.0404 5.71191 19.8295 6.50104 19.8295 7.47449V18.0504C19.8295 19.0238 19.0404 19.813 18.067 19.813H3.9657C2.99225 19.813 2.20313 19.0238 2.20313 18.0504V7.47449C2.20291 6.50104 2.99203 5.71191 3.9657 5.71191ZM16.3042 14.5252C17.2776 14.5252 18.0668 13.7361 18.0668 12.7627C18.0668 11.7892 17.2776 11.0001 16.3042 11.0001C15.3307 11.0001 14.5416 11.7892 14.5416 12.7627C14.5414 13.7359 15.3305 14.5252 16.3042 14.5252Z" fill="#4D9D98"/>
</svg>
